<svg xmlns="http://www.w3.org/2000/svg" xmlns:xlink="http://www.w3.org/1999/xlink" viewBox="0 0 75.66 75.4"><defs><style>.cls-1{fill:none;}.cls-2{clip-path:url(#clip-path);}.cls-3{fill:#fff;}.cls-4{fill:#c2282d;}.cls-5{fill:#322324;}.cls-6{fill:#622e2f;}.cls-7{fill:#f3d3d4;}.cls-8{fill:#d9b7b8;}.cls-9{fill:#916869;}.cls-10{fill:#624647;}.cls-11{fill:#f2e6e7;}</style><clipPath id="clip-path" transform="translate(-0.77 -0.01)"><rect class="cls-1" width="76.89" height="75.42"/></clipPath></defs><title>cb-logoAsset 1</title><g id="Layer_2" data-name="Layer 2"><g id="Layer_1-2" data-name="Layer 1"><g class="cls-2"><path class="cls-3" d="M34.89,62.27C32,72.7,25.77,75.42,18,75.42,6.76,75.42.77,67.18.77,53.08c0-13.79,6.87-21.62,17.77-21.62,8.59,0,13.75,3.85,15.76,12.91l-7.58,1.42c-1.47-5.56-4.25-7.58-8.3-7.58C12.56,38.21,9,43.55,9,53.08c0,10.48,3.14,15.46,9.31,15.46,4.09,0,7.34-2.2,8.88-8.06Z" transform="translate(-0.77 -0.01)"/><path class="cls-4" d="M44.44,74.71V32.17H58c11.86,0,17,3.62,17,10.78a9.33,9.33,0,0,1-6.4,9.19v.12C74,54,76.43,57.47,76.43,62.62c0,9.71-8.3,12.09-17.53,12.09Zm14-25c3.56,0,8.3-.77,8.3-5.75,0-4.63-4.62-5.1-8.88-5.1h-5.4V49.71ZM59,68c6.76,0,9.31-2,9.31-6,0-4.51-3.44-6.22-8.7-6.22H52.44V68Z" transform="translate(-0.77 -0.01)"/><path class="cls-5" d="M50,44l2.9,4.21L46.32,53.1a.55.55,0,0,1-.78,0,.54.54,0,0,1,0-.74l3.55-4.68-.74-2.41Z" transform="translate(-0.77 -0.01)"/><path class="cls-5" d="M40.2,43.41l2.28,5-6.81,4.49a.55.55,0,0,1-.78-.07.56.56,0,0,1,0-.72l3.8-4.47-.21-3.12Z" transform="translate(-0.77 -0.01)"/><path class="cls-6" d="M60.84,26v1.09A4.87,4.87,0,0,1,56,32H44.44L41.88,46.16l-5.75-1.41s3.8-7.38,3.55-13.48c-.08-1.91.89-3.67,2.78-3.91L53.18,26Z" transform="translate(-0.77 -0.01)"/><path class="cls-6" d="M63.8,26.79v1.09a4.85,4.85,0,0,1-4.86,4.86H47.41l4.74,13.92H46.09s-2.29-9-3.44-14.64a3.26,3.26,0,0,1,2.54-3.86l.24,0,10.71-1.33Z" transform="translate(-0.77 -0.01)"/><rect class="cls-7" x="48.72" y="18.25" width="3.5" height="8.52"/><path class="cls-4" d="M61.78,11.39a19.71,19.71,0,0,0-5.87-2c-1.46-.2-3.15,1.17-4.48,2.61a10.53,10.53,0,0,0-2.68,5.72l-.25,1.85a10.73,10.73,0,0,0,4,.3l1.44,6.07,10.45,1.72c.06-3.1-2.6-16.28-2.6-16.28" transform="translate(-0.77 -0.01)"/><path class="cls-7" d="M53.82,12.39h0a1.28,1.28,0,0,0,2.35-1L54.89,5.7,51.62,7Z" transform="translate(-0.77 -0.01)"/><path class="cls-7" d="M53.19,27.16l-.1-3.05a47.81,47.81,0,0,0,9.06-1.38c-.66-1.81-2.4-5.58-4-8.7l3.52-1.79C63,14.9,66.19,21.31,66.34,23.3a2.54,2.54,0,0,1-.62,1.83c-.69.79-2,.87-7.18,1.61a48.17,48.17,0,0,1-5.36.42" transform="translate(-0.77 -0.01)"/><rect class="cls-8" x="45.92" y="25.93" width="6.72" height="1.18"/><path class="cls-7" d="M53.09,24.09c-2.87.1-5.85.27-5.6,1.85,0,0,3.56,0,4.11.4s.33.9,1.83.78L54,25.77Z" transform="translate(-0.77 -0.01)"/><path class="cls-4" d="M59.18,18.79a7.21,7.21,0,0,0,5.2-3s-.64-3.5-2.6-4.39c-3-1.37-5,1.28-4.39,2.68l1.79,4.72" transform="translate(-0.77 -0.01)"/><path class="cls-9" d="M47.41,27.13H36.34l-2.88-10H44.54Z" transform="translate(-0.77 -0.01)"/><path class="cls-8" d="M46.69,27.13H35.62l-2.88-10H43.82Z" transform="translate(-0.77 -0.01)"/><path class="cls-7" d="M56.55,5.65C56,8,54,9.47,52.2,9S49.42,6.29,50,4,52.56.13,54.37.6s2.78,2.72,2.18,5.05" transform="translate(-0.77 -0.01)"/><path class="cls-7" d="M57.57,5c-.2.77-.8,1.27-1.34,1.14a1.28,1.28,0,0,1-.62-1.65c.2-.77.8-1.27,1.34-1.14s.82.88.62,1.65" transform="translate(-0.77 -0.01)"/><path class="cls-4" d="M52.12,4l-.65,2.13,1.17.06Z" transform="translate(-0.77 -0.01)"/><path class="cls-10" d="M50,2.48c4.31-1.41,5.78.39,6,2,0,.19.3.17.35,0l.32-1.14A3,3,0,0,0,54.16.11,3.5,3.5,0,0,0,50,2.49" transform="translate(-0.77 -0.01)"/><path class="cls-4" d="M52.3,7.36l2.37-.64s-.89,2.38-2.37.64" transform="translate(-0.77 -0.01)"/><path class="cls-11" d="M40.47,22.53c.08.74-.32,1.34-.92,1.34a1.44,1.44,0,0,1-1.26-1.34c-.1-.74.32-1.34.92-1.34a1.45,1.45,0,0,1,1.26,1.34" transform="translate(-0.77 -0.01)"/></g></g></g></svg>