<svg id="Layer_1" data-name="Layer 1" xmlns="http://www.w3.org/2000/svg" xmlns:xlink="http://www.w3.org/1999/xlink" viewBox="0 0 311.83 75.42"><defs><style>.cls-1{fill:none;}.cls-2{clip-path:url(#clip-path);}.cls-3{fill:#fff;}.cls-4{fill:#c2282d;}.cls-5{fill:#322324;}.cls-6{fill:#622e2f;}.cls-7{fill:#f3d3d4;}.cls-8{fill:#d9b7b8;}.cls-9{fill:#916869;}.cls-10{fill:#624647;}.cls-11{fill:#f2e6e7;}</style><clipPath id="clip-path" transform="translate(0 -0.01)"><rect class="cls-1" width="318.54" height="75.42"/></clipPath></defs><title>codebound-logo-v2</title><g class="cls-2"><path class="cls-3" d="M34.12,62.27C31.22,72.7,25,75.41,17.24,75.41,6,75.41,0,67.18,0,53.08c0-13.8,6.87-21.63,17.77-21.63,8.59,0,13.75,3.86,15.76,12.91L26,45.79c-1.47-5.57-4.26-7.58-8.3-7.58-5.86,0-9.47,5.33-9.47,14.87,0,10.48,3.14,15.46,9.31,15.46,4.09,0,7.34-2.2,8.88-8.06Z" transform="translate(0 -0.01)"/><path class="cls-3" d="M37.79,59.42c0-10.2,5.21-16.23,13.8-16.23s13.75,6,13.75,16.23-5.22,16-13.75,16-13.8-6-13.8-16m20.2,0c0-6-1.84-10.55-6.4-10.55s-6.46,4.56-6.46,10.55,2,10.31,6.46,10.31S58,65.59,58,59.42" transform="translate(0 -0.01)"/><path class="cls-3" d="M91.59,74.71l-1-3.37c-2.85,2.6-5.52,4.09-9.47,4.09-7.41,0-11.67-6.34-11.67-15.76,0-9.89,4.86-16.23,12.5-16.23a11.16,11.16,0,0,1,8,3.25V32.17h7.23V74.71ZM89.93,52.54a7.64,7.64,0,0,0-6.17-3.25c-4.51,0-6.92,3.91-6.92,10.43,0,6.17,2.6,9.72,6.81,9.72A8.06,8.06,0,0,0,89.93,66Z" transform="translate(0 -0.01)"/><path class="cls-3" d="M116.52,75.41c-9,0-13.44-6.75-13.44-16.3s5.56-15.94,13.63-15.94c8.77,0,13.14,6,13.14,15.52,0,.47,0,1.08-.07,2H110.13c.3,5.51,2.13,9,6.93,9,3.25,0,5.51-1.48,7.22-4.8l5.45,2.78c-3.25,5.87-7.94,7.76-13.21,7.76m-6.27-19.55h12.68c0-4.37-2.32-7.22-6.17-7.22s-5.92,3.08-6.52,7.22" transform="translate(0 -0.01)"/><path class="cls-4" d="M136.44,74.71V32.17H150c11.86,0,17,3.62,17,10.78a9.33,9.33,0,0,1-6.4,9.19v.12c5.52,1.78,7.93,5.21,7.93,10.36,0,9.71-8.3,12.09-17.53,12.09Zm14-25c3.56,0,8.3-.77,8.3-5.75,0-4.63-4.62-5.1-8.88-5.1h-5.4V49.71ZM151,68c6.76,0,9.31-2,9.31-6,0-4.51-3.44-6.22-8.7-6.22h-7.13V68Z" transform="translate(0 -0.01)"/><path class="cls-4" d="M172.81,59.42c0-10.2,5.21-16.23,13.8-16.23s13.74,6,13.74,16.23-5.21,16-13.74,16-13.8-6-13.8-16m20.2,0c0-6-1.85-10.55-6.4-10.55s-6.46,4.56-6.46,10.55,2,10.31,6.46,10.31,6.4-4.14,6.4-10.31" transform="translate(0 -0.01)"/><path class="cls-4" d="M224.58,74.71V70.92c-3.32,3-6.34,4.51-10,4.51s-6-1.36-7.35-3.79c-.95-1.54-1.3-3.55-1.3-7.34V43.89h7.29V64.33c0,3.37,1.36,4.91,4.14,4.91,2.08,0,4-.89,6.69-3.43V43.89h7.18V74.71Z" transform="translate(0 -0.01)"/><path class="cls-4" d="M257.17,74.71V54.32c0-3.44-1.47-5-4.26-5-2.08,0-4.14.89-6.81,3.44V74.71h-7.17V43.89h6.64v3.79c3.32-3,6.45-4.51,10.13-4.51s6,1.36,7.41,3.79c.89,1.54,1.3,3.55,1.3,7.34V74.7Z" transform="translate(0 -0.01)"/><path class="cls-4" d="M292,74.71l-.95-3.37c-2.85,2.6-5.52,4.09-9.48,4.09-7.41,0-11.66-6.34-11.66-15.76,0-9.89,4.86-16.23,12.5-16.23a11.16,11.16,0,0,1,7.95,3.25V32.17h7.23V74.71Zm-1.66-22.17a7.6,7.6,0,0,0-6.15-3.25c-4.51,0-6.92,3.91-6.92,10.43,0,6.17,2.6,9.72,6.8,9.72A8.07,8.07,0,0,0,290.37,66Z" transform="translate(0 -0.01)"/><path class="cls-5" d="M142,44l2.9,4.21-6.55,4.86a.55.55,0,0,1-.78,0,.54.54,0,0,1,0-.74l3.55-4.68-.74-2.41Z" transform="translate(0 -0.01)"/><path class="cls-5" d="M132.2,43.41l2.28,5-6.81,4.49a.55.55,0,0,1-.78-.07.56.56,0,0,1,0-.72l3.8-4.47-.21-3.12Z" transform="translate(0 -0.01)"/><path class="cls-6" d="M152.84,26v1.09A4.87,4.87,0,0,1,148,32H136.44l-2.56,14.17-5.75-1.41s3.8-7.38,3.55-13.48c-.08-1.91.89-3.67,2.78-3.91L145.18,26Z" transform="translate(0 -0.01)"/><path class="cls-6" d="M155.8,26.79v1.09a4.85,4.85,0,0,1-4.86,4.86H139.41l4.74,13.92h-6.06s-2.29-9-3.44-14.64a3.26,3.26,0,0,1,2.54-3.86l.24,0,10.71-1.33Z" transform="translate(0 -0.01)"/><rect class="cls-7" x="141.49" y="18.25" width="3.5" height="8.52"/><path class="cls-4" d="M153.78,11.39a19.71,19.71,0,0,0-5.87-2c-1.46-.2-3.15,1.17-4.48,2.61a10.53,10.53,0,0,0-2.68,5.72l-.25,1.85a10.73,10.73,0,0,0,4,.3l1.44,6.07,10.45,1.72c.06-3.1-2.6-16.28-2.6-16.28" transform="translate(0 -0.01)"/><path class="cls-7" d="M145.82,12.39h0a1.28,1.28,0,0,0,2.35-1l-1.29-5.7L143.62,7Z" transform="translate(0 -0.01)"/><path class="cls-7" d="M145.19,27.16l-.1-3.05a47.81,47.81,0,0,0,9.06-1.38c-.66-1.81-2.4-5.58-4-8.7l3.52-1.79c1.34,2.66,4.51,9.07,4.66,11.06a2.54,2.54,0,0,1-.62,1.83c-.69.79-2,.87-7.18,1.61a48.17,48.17,0,0,1-5.36.42" transform="translate(0 -0.01)"/><rect class="cls-8" x="138.69" y="25.93" width="6.72" height="1.18"/><path class="cls-7" d="M145.09,24.09c-2.87.1-5.85.27-5.6,1.85,0,0,3.56,0,4.11.4s.33.9,1.83.78l.57-1.35Z" transform="translate(0 -0.01)"/><path class="cls-4" d="M151.18,18.79a7.21,7.21,0,0,0,5.2-3s-.64-3.5-2.6-4.39c-3-1.37-4.95,1.28-4.39,2.68l1.79,4.72" transform="translate(0 -0.01)"/><path class="cls-9" d="M139.41,27.13H128.34l-2.88-10h11.08Z" transform="translate(0 -0.01)"/><path class="cls-8" d="M138.69,27.13H127.62l-2.88-10h11.08Z" transform="translate(0 -0.01)"/><path class="cls-7" d="M148.55,5.65C148,8,146,9.47,144.2,9S141.42,6.29,142,4,144.56.13,146.37.6s2.78,2.72,2.18,5.05" transform="translate(0 -0.01)"/><path class="cls-7" d="M149.57,5c-.2.77-.8,1.27-1.34,1.14a1.28,1.28,0,0,1-.62-1.65c.2-.77.8-1.27,1.34-1.14s.82.88.62,1.65" transform="translate(0 -0.01)"/><path class="cls-4" d="M144.12,4l-.65,2.13,1.17.06Z" transform="translate(0 -0.01)"/><path class="cls-10" d="M142,2.48c4.31-1.41,5.78.39,6,2,0,.19.3.17.35,0l.32-1.14a3,3,0,0,0-2.5-3.23A3.5,3.5,0,0,0,142,2.49" transform="translate(0 -0.01)"/><path class="cls-4" d="M144.3,7.36l2.37-.64s-.89,2.38-2.37.64" transform="translate(0 -0.01)"/><path class="cls-11" d="M132.47,22.53c.08.74-.32,1.34-.92,1.34a1.44,1.44,0,0,1-1.26-1.34c-.1-.74.32-1.34.92-1.34a1.45,1.45,0,0,1,1.26,1.34" transform="translate(0 -0.01)"/><path class="cls-3" d="M303.24,37.81V33.06h-1.52v-.82h4v.82h-1.55v4.75Zm7.68,0V33.28h0l-1.27,4.53h-.89l-1.36-4.53h0v4.53h-.88V32.24h1.4l1.31,4.31h0l1.25-4.31h1.38v5.58Z" transform="translate(0 -0.01)"/></g></svg>