<svg xmlns="http://www.w3.org/2000/svg" xmlns:xlink="http://www.w3.org/1999/xlink" width="318.535" height="75.416" viewBox="0 0 318.535 75.416"><defs><style>.a{fill:none;}.b{clip-path:url(#a);}.c{fill:#616264;}.d{fill:#c2282d;}.e{fill:#322324;}.f{fill:#622e2f;}.g{fill:#f3d3d4;}.h{fill:#d9b7b8;}.i{fill:#916869;}.j{fill:#624647;}.k{fill:#f2e6e7;}.l{fill:#4b4b4d;}</style><clipPath id="a"><rect class="a" width="318.535" height="75.416"/></clipPath></defs><g transform="translate(159.267 37.708)"><g class="b" transform="translate(-159.267 -37.708)"><path class="c" d="M34.119,218.416C31.218,228.844,25,231.56,17.235,231.56,5.985,231.56,0,223.328,0,209.228,0,195.43,6.874,187.6,17.772,187.6c8.584,0,13.748,3.856,15.76,12.91l-7.578,1.425c-1.475-5.566-4.259-7.578-8.3-7.578-5.868,0-9.473,5.332-9.473,14.871,0,10.479,3.135,15.458,9.305,15.458,4.091,0,7.343-2.2,8.886-8.064Z" transform="translate(0 -156.147)"/><path class="c" d="M225.4,273.829c0-10.194,5.214-16.229,13.8-16.229s13.748,6.036,13.748,16.229-5.214,15.995-13.748,15.995-13.8-6.036-13.8-15.995m20.2,0c0-5.985-1.844-10.546-6.4-10.546s-6.455,4.56-6.455,10.546,1.962,10.311,6.455,10.311,6.4-4.141,6.4-10.311" transform="translate(-187.61 -214.411)"/><path class="c" d="M436.6,234.435l-.956-3.37c-2.85,2.6-5.516,4.091-9.473,4.091-7.41,0-11.669-6.337-11.669-15.76,0-9.892,4.862-16.229,12.507-16.229a11.149,11.149,0,0,1,7.947,3.253V191.9h7.226v42.535Zm-1.66-22.164a7.616,7.616,0,0,0-6.17-3.253c-4.51,0-6.924,3.906-6.924,10.428,0,6.17,2.6,9.724,6.807,9.724a8.057,8.057,0,0,0,6.287-3.437Z" transform="translate(-345.006 -159.726)"/><path class="c" d="M628.246,289.741c-8.953,0-13.446-6.757-13.446-16.3s5.566-15.944,13.631-15.944c8.768,0,13.144,6.036,13.144,15.525,0,.469,0,1.073-.067,1.962h-19.65c.3,5.516,2.129,9,6.924,9,3.253,0,5.516-1.475,7.226-4.8l5.449,2.783c-3.253,5.868-7.947,7.763-13.211,7.763m-6.27-19.549h12.675c0-4.376-2.314-7.226-6.17-7.226s-5.918,3.085-6.522,7.226" transform="translate(-511.723 -214.328)"/><path class="d" d="M813.8,234.435V191.9h13.513c11.853,0,16.95,3.621,16.95,10.78a9.349,9.349,0,0,1-6.4,9.188v.117c5.516,1.777,7.93,5.214,7.93,10.361,0,9.707-8.3,12.088-17.537,12.088Zm13.983-25c3.554,0,8.3-.771,8.3-5.751,0-4.627-4.627-5.1-8.886-5.1h-5.4v10.848Zm.537,18.308c6.757,0,9.305-2.012,9.305-6.036,0-4.51-3.437-6.22-8.7-6.22H821.8v12.256Z" transform="translate(-677.359 -159.726)"/><path class="d" d="M1030.7,273.829c0-10.194,5.214-16.229,13.8-16.229s13.748,6.036,13.748,16.229-5.214,15.995-13.748,15.995-13.8-6.036-13.8-15.995m20.2,0c0-5.985-1.844-10.546-6.4-10.546s-6.455,4.56-6.455,10.546,1.962,10.311,6.455,10.311,6.4-4.141,6.4-10.311" transform="translate(-857.894 -214.411)"/><path class="d" d="M1246.86,292.616v-3.789c-3.32,3.018-6.337,4.51-10.009,4.51s-6.036-1.358-7.344-3.789c-.956-1.542-1.308-3.554-1.308-7.343V261.8h7.293v20.438c0,3.37,1.358,4.912,4.141,4.912,2.079,0,4.024-.889,6.69-3.437V261.8h7.176v30.816Z" transform="translate(-1022.282 -217.907)"/><path class="d" d="M1443.341,289.037V268.649c0-3.437-1.475-4.979-4.259-4.979-2.079,0-4.141.889-6.807,3.437v21.93H1425.1V258.221h6.639v3.789c3.32-3.018,6.455-4.51,10.127-4.51s6.036,1.358,7.411,3.789c.889,1.542,1.308,3.554,1.308,7.343v20.4Z" transform="translate(-1186.17 -214.328)"/><path class="d" d="M1632,234.435l-.956-3.37c-2.85,2.6-5.516,4.091-9.473,4.091-7.411,0-11.669-6.337-11.669-15.76,0-9.892,4.862-16.229,12.507-16.229a11.149,11.149,0,0,1,7.947,3.253V191.9h7.226v42.535Zm-1.66-22.164a7.609,7.609,0,0,0-6.153-3.253c-4.51,0-6.924,3.906-6.924,10.428,0,6.17,2.6,9.724,6.807,9.724a8.057,8.057,0,0,0,6.287-3.437Z" transform="translate(-1339.986 -159.726)"/><path class="e" d="M823.99,262.6l2.9,4.208-6.555,4.862a.553.553,0,0,1-.822-.738l3.554-4.678-.738-2.414Z" transform="translate(-682.017 -218.573)"/><path class="e" d="M761.531,258.9l2.28,5.03L757,268.423a.553.553,0,0,1-.771-.788l3.806-4.477-.218-3.118Z" transform="translate(-629.332 -215.493)"/><path class="f" d="M788.913,155.3v1.09a4.862,4.862,0,0,1-4.862,4.862H772.516l-2.565,14.167-5.751-1.408s3.806-7.377,3.554-13.48c-.084-1.911.889-3.672,2.783-3.906l10.713-1.325Z" transform="translate(-636.075 -129.263)"/><path class="f" d="M823.92,159.8v1.09a4.862,4.862,0,0,1-4.862,4.862H807.523l4.745,13.916H806.2s-2.28-9-3.437-14.637a3.269,3.269,0,0,1,2.783-3.906l10.713-1.324Z" transform="translate(-668.115 -133.008)"/><rect class="g" width="3.504" height="8.52" transform="translate(141.487 18.258)"/><path class="d" d="M851.279,57.9a19.725,19.725,0,0,0-5.868-2c-1.459-.2-3.152,1.174-4.477,2.615a10.512,10.512,0,0,0-2.683,5.717L838,66.079a10.44,10.44,0,0,0,3.99.3l1.442,6.069,10.445,1.727c.067-3.1-2.6-16.28-2.6-16.28" transform="translate(-697.502 -46.513)"/><path class="g" d="M858.8,40.69h.017a1.282,1.282,0,0,0,2.347-.989L859.869,34,856.6,35.341Z" transform="translate(-712.984 -28.3)"/><path class="g" d="M865.5,87.922l-.1-3.051a48.122,48.122,0,0,0,9.054-1.375c-.654-1.811-2.4-5.583-3.99-8.7L873.984,73c1.341,2.666,4.51,9.07,4.661,11.065a2.5,2.5,0,0,1-.62,1.827c-.687.788-2,.872-7.176,1.61a49.711,49.711,0,0,1-5.365.419" transform="translate(-720.308 -60.761)"/><rect class="h" width="6.723" height="1.184" transform="translate(138.687 25.937)"/><path class="g" d="M837.526,143.7c-2.867.1-5.851.268-5.6,1.844,0,0,3.554.05,4.108.4s.335.905,1.827.788l.57-1.358Z" transform="translate(-692.434 -119.607)"/><path class="d" d="M892.322,73.4a7.24,7.24,0,0,0,5.2-3.018s-.637-3.5-2.6-4.393c-3.035-1.375-4.946,1.274-4.393,2.683l1.794,4.711" transform="translate(-741.144 -54.608)"/><path class="i" d="M762.249,112.109H751.184L748.3,102.1h11.082Z" transform="translate(-622.841 -84.982)"/><path class="h" d="M757.949,112.109H746.884L744,102.1h11.082Z" transform="translate(-619.262 -84.982)"/><path class="g" d="M852.742,8.218c-.6,2.314-2.548,3.823-4.342,3.353s-2.783-2.716-2.18-5.047,2.532-3.823,4.342-3.353,2.783,2.716,2.18,5.047" transform="translate(-704.196 -2.568)"/><path class="g" d="M882.04,21.536c-.2.771-.8,1.274-1.341,1.14s-.822-.872-.62-1.643.8-1.274,1.341-1.14.822.872.62,1.643" transform="translate(-732.472 -16.539)"/><path class="d" d="M856.354,23.6l-.654,2.129,1.174.067Z" transform="translate(-712.235 -19.643)"/><path class="j" d="M846.9,2.456c4.309-1.408,5.784.386,6,2,.017.184.3.168.352,0l.319-1.14a3.013,3.013,0,0,0-2.5-3.236,3.513,3.513,0,0,0-4.158,2.381" transform="translate(-704.91 0.025)"/><path class="d" d="M860.7,40.737l2.364-.637s-.889,2.381-2.364.637" transform="translate(-716.396 -33.377)"/><path class="k" d="M779.205,127.741c.084.738-.319,1.341-.922,1.341a1.45,1.45,0,0,1-1.257-1.341c-.1-.738.319-1.341.922-1.341a1.45,1.45,0,0,1,1.257,1.341" transform="translate(-646.738 -105.208)"/><path class="l" d="M1801.126,197.866v-4.745H1799.6V192.3h3.957v.822h-1.542v4.745Zm7.679,0v-4.527h-.033l-1.274,4.527h-.889l-1.358-4.527h-.034v4.527h-.889V192.3h1.408l1.308,4.309h.034l1.257-4.309h1.375v5.583Z" transform="translate(-1497.882 -160.059)"/></g></g></svg>