<?xml version="1.0" encoding="utf-8"?>
<!-- Generator: Adobe Illustrator 16.0.0, SVG Export Plug-In . SVG Version: 6.00 Build 0)  -->
<!DOCTYPE svg PUBLIC "-//W3C//DTD SVG 1.1//EN" "http://www.w3.org/Graphics/SVG/1.1/DTD/svg11.dtd">
<svg version="1.1" id="Layer_1" xmlns="http://www.w3.org/2000/svg" xmlns:xlink="http://www.w3.org/1999/xlink" x="0px" y="0px"
	 width="441px" height="153px" viewBox="0 0 441 153" enable-background="new 0 0 441 153" xml:space="preserve">
<polygon stroke="#000000" stroke-width="10" stroke-miterlimit="10" points="26.2,53.02 56.24,100 39.04,100 17.6,66.47 9,53.02 
	9.01,53 17.6,39.56 39.06,6 56.26,6 26.21,53 26.19,53 "/>
<polygon stroke="#000000" stroke-width="10" stroke-miterlimit="10" points="153,147 135.8,147 107.39,102.56 105.75,100 
	98.78,89.1 75.7,53 92.9,53 107.38,75.64 115.99,89.1 122.95,100 "/>
<polyline stroke="#000000" stroke-width="10" stroke-miterlimit="10" points="162.16,53.03 192.19,100 174.98,100 153.56,66.49 
	144.95,53.03 144.97,53 153.56,39.57 175.02,6 192.23,6 162.18,53 "/>
<polygon stroke="#000000" stroke-width="10" stroke-miterlimit="10" points="432,53 423.399,66.46 401.949,100 384.739,100 
	414.79,53 414.79,52.99 414.779,52.97 384.739,6 401.949,6 423.39,39.55 431.979,52.97 "/>
<polygon stroke="#000000" stroke-width="10" stroke-miterlimit="10" points="369,53 338.961,100 308.91,147 291.701,147 321.75,100 
	351.801,53 "/>
<polygon stroke="#000000" stroke-width="10" stroke-miterlimit="10" points="268.76,100 260.16,113.46 238.72,147 221.72,147 
	243.16,113.46 251.76,100 243.16,86.55 221.71,53 238.71,53 260.16,86.55 "/>
</svg>
