<?xml version="1.0" encoding="utf-8"?>
<!-- Generator: Adobe Illustrator 16.0.0, SVG Export Plug-In . SVG Version: 6.00 Build 0)  -->
<!DOCTYPE svg PUBLIC "-//W3C//DTD SVG 1.1//EN" "http://www.w3.org/Graphics/SVG/1.1/DTD/svg11.dtd">
<svg version="1.1" id="Layer_1" xmlns="http://www.w3.org/2000/svg" xmlns:xlink="http://www.w3.org/1999/xlink" x="0px" y="0px"
	 width="500.727px" height="406.664px" viewBox="50.5 277.836 500.727 406.664"
	 enable-background="new 50.5 277.836 500.727 406.664" xml:space="preserve">
<path fill="#FFFFFF" stroke="#FFFDFD" stroke-miterlimit="10" d="M485.635,600.143c-19.68,22.368-43.456,41.065-70.143,54.899
	c-0.009,0-0.009,0.009-0.02,0.009l-8.025,1.864c21.006-14.034,39.558-31.404,54.928-51.374L485.635,600.143z"/>
<path fill="#FFFFFF" stroke="#FFFDFD" stroke-miterlimit="10" d="M527.235,533.6c-8.227,19.751-19.016,38.177-31.939,54.854
	l-24.723,5.733c11.188-16.495,20.296-34.521,26.94-53.688L527.235,533.6z"/>
<path fill="#FFFFFF" stroke="#FFFDFD" stroke-miterlimit="10" d="M545.678,440.971c0,27.358-4.554,53.653-12.961,78.158v0.01
	l-0.491,0.109l-0.816,0.19l-29.486,6.835c4.382-15.853,7.09-32.395,7.963-49.429c0.209-3.972,0.31-7.971,0.31-11.998
	c0-6.599-0.272-13.124-0.817-19.568c-0.146-1.735-0.31-3.463-0.491-5.19l8.953-2.081l0.718-0.163l0.01-0.009l20.088-4.654
	l6.854-1.591C545.615,434.698,545.678,437.826,545.678,440.971z"/>
<path fill="#FFFFFF" stroke="#FFFDFD" stroke-miterlimit="10" d="M551.227,344.62"/>
<path fill="#FFFFFF" stroke="#FFFDFD" stroke-miterlimit="10" d="M542.391,324.999"/>
<path fill="#FFFFFF" stroke="#FFFDFD" stroke-miterlimit="10" d="M554.264,541.844"/>
<path fill="#FFFFFF" stroke="#FFFDFD" stroke-miterlimit="10" d="M503.789,586.479"/>
<path fill="#FFFFFF" stroke="#FFFDFD" stroke-miterlimit="10" d="M495.59,597.826"/>
<path fill="#FFFFFF" stroke="#FFFDFD" stroke-miterlimit="10" d="M339.605,461.794c0,76.495-62.007,138.503-138.503,138.503
	c-23.532,0-45.71-5.871-65.116-16.232v-0.01c-22.614-12.07-41.493-30.229-54.427-52.3c0.291,0.881,0.572,1.772,0.854,2.672
	c-0.272,0.918-0.554,1.863-0.836,2.836c-0.055,0.183-0.1,0.354-0.154,0.536c-5.045,18.442-12.853,50.438-13.607,66.997
	c-8.871-26.977-13.116-55.962-11.862-86.003c0.773-18.359,3.563-36.166,8.153-53.208l1.6-0.337l0.654-0.137l0.409-0.082v0.037
	l4.254-1l1.136-0.255l0.154-0.046l22.978-5.335l9.408-2.183c0,0.056,0.009,0.101,0.009,0.155c0,0.026,0.009,0.045,0.009,0.063v0.072
	c0.1,1.673,0.346,3.309,0.727,4.899c0,0,0,0.009,0.009,0.009c0.037,0.154,0.073,0.31,0.127,0.464
	c1.627,6.29,5.39,11.725,10.462,15.497c3.172,2.362,6.853,4.063,10.853,4.927c1.909,0.418,3.899,0.637,5.944,0.637
	c15.57,0,28.186-12.615,28.186-28.187c0-1.127-0.064-2.236-0.191-3.326c1.309,4.436,2.009,9.125,2.009,13.979
	c0,27.275-22.114,49.391-49.392,49.391c-3.581,0-7.071-0.382-10.425-1.108c-7.008-1.509-13.461-4.499-19.024-8.645
	c-7.298-5.427-13.043-12.824-16.452-21.405c0.137,1.055,0.282,2.101,0.445,3.127c3.054,9.1,7.444,17.561,12.934,25.195
	c8.108,11.271,18.615,20.688,30.768,27.514v0.009c13.77,7.744,29.667,12.162,46.601,12.162c52.618,0,95.265-42.655,95.265-95.273
	c0-11.727-2.109-22.934-5.99-33.313l63.752-14.807l15.941-3.708C335.197,422.028,339.605,441.397,339.605,461.794z"/>
<path fill="#FFFFFF" stroke="#FFFDFD" stroke-miterlimit="10" d="M419.945,517.684c-20.25,63.953-74.868,112.608-142.185,124.298
	c2.182-0.373,4.336-0.781,6.481-1.228c1.091-0.228,2.182-0.474,3.263-0.719c2.054-0.473,4.081-0.973,6.108-1.509
	c1.054-0.281,2.1-0.572,3.145-0.872s2.09-0.609,3.127-0.928c0.836-0.245,1.663-0.51,2.49-0.781c1.245-0.392,2.481-0.81,3.717-1.236
	c0.928-0.317,1.854-0.646,2.772-0.98c0.1-0.037,0.209-0.073,0.31-0.108c0.672-0.246,1.345-0.491,2.009-0.755
	c1.809-0.683,3.6-1.399,5.382-2.146c0.754-0.309,1.509-0.627,2.262-0.954c2.282-0.98,4.545-2.019,6.782-3.107
	c0.626-0.291,1.254-0.601,1.872-0.909c0.28-0.137,0.571-0.282,0.854-0.428c0.672-0.335,1.345-0.683,2.018-1.035
	c0.29-0.146,0.581-0.301,0.872-0.455c0.618-0.317,1.236-0.646,1.847-0.98c0.398-0.22,0.8-0.428,1.189-0.654
	c0.591-0.318,1.173-0.646,1.754-0.981c0.854-0.474,1.7-0.964,2.546-1.464c0.48-0.271,0.964-0.563,1.437-0.854
	c0.454-0.265,0.908-0.537,1.354-0.811c0.445-0.271,0.892-0.546,1.326-0.827c0.628-0.382,1.246-0.771,1.863-1.172
	c0.083-0.056,0.174-0.108,0.255-0.164c0.737-0.473,1.464-0.944,2.19-1.427c0.346-0.229,0.69-0.454,1.026-0.691
	c0.536-0.354,1.072-0.718,1.609-1.09c0.335-0.228,0.663-0.455,0.99-0.69c0.48-0.327,0.964-0.663,1.437-1.009
	c0.636-0.454,1.264-0.909,1.892-1.373c0.136-0.092,0.271-0.191,0.407-0.301c0.501-0.354,0.991-0.728,1.482-1.101
	c0.59-0.437,1.172-0.881,1.745-1.326c0.209-0.154,0.408-0.31,0.599-0.464c0.619-0.481,1.237-0.963,1.846-1.454
	c0.282-0.218,0.556-0.445,0.827-0.673c0.527-0.418,1.046-0.845,1.563-1.281c0.764-0.618,1.509-1.245,2.255-1.891
	c0.409-0.337,0.809-0.69,1.209-1.036c0.49-0.427,0.981-0.854,1.462-1.281c0.692-0.608,1.364-1.227,2.037-1.846
	c0.418-0.373,0.827-0.755,1.236-1.136c0.545-0.51,1.081-1.02,1.616-1.527c0.183-0.173,0.354-0.336,0.527-0.509
	c0.527-0.5,1.045-1.009,1.554-1.52c0.301-0.29,0.602-0.581,0.893-0.881c0.427-0.428,0.854-0.854,1.263-1.281
	c0.428-0.428,0.836-0.846,1.245-1.28c0.21-0.21,0.409-0.419,0.601-0.637c0.52-0.527,1.027-1.063,1.526-1.609
	c0.255-0.272,0.501-0.536,0.746-0.81c0.5-0.546,0.999-1.091,1.49-1.646c0.563-0.618,1.117-1.245,1.663-1.881
	c0.555-0.628,1.1-1.266,1.627-1.899c0.21-0.228,0.408-0.465,0.601-0.701c0.382-0.453,0.763-0.907,1.127-1.362
	c0.409-0.49,0.81-0.981,1.2-1.474c0.581-0.718,1.163-1.443,1.727-2.172c0.363-0.463,0.719-0.928,1.072-1.398
	c0.428-0.545,0.846-1.101,1.255-1.654c0.636-0.846,1.264-1.7,1.881-2.563c0.582-0.801,1.146-1.601,1.709-2.408
	c0.547-0.782,1.092-1.573,1.618-2.363c0.282-0.418,0.563-0.837,0.836-1.264c0.418-0.618,0.818-1.235,1.219-1.863
	c1.063-1.645,2.101-3.309,3.1-4.99c0.527-0.882,1.055-1.771,1.563-2.663c0.327-0.571,0.654-1.145,0.981-1.728
	c0.3-0.527,0.591-1.055,0.882-1.591c0.672-1.218,1.327-2.444,1.954-3.673c0.355-0.662,0.691-1.326,1.027-1.998
	c0.48-0.955,0.955-1.919,1.418-2.883c0.463-0.963,0.918-1.936,1.362-2.908c0.455-0.973,0.892-1.944,1.318-2.936
	c0.836-1.898,1.636-3.818,2.408-5.754c1.608-4.063,3.082-8.207,4.409-12.406c2.999-9.554,5.233-19.441,6.635-29.604
	C425.235,498.197,422.981,508.113,419.945,517.684z M276.152,642.254c0.428-0.063,0.846-0.137,1.273-0.21
	c0.109-0.018,0.227-0.036,0.336-0.063C277.225,642.072,276.689,642.162,276.152,642.254z"/>
<line fill="#FFFFFF" stroke="#FFFDFD" stroke-miterlimit="10" x1="66.689" y1="438.88" x2="66.671" y2="438.88"/>
<polygon fill="#FFFFFF" stroke="#FFFDFD" stroke-miterlimit="10" points="83.086,404.468 75.76,406.731 75.76,406.722 
	78.433,405.896 "/>
<path fill="#FFFFFF" stroke="#FFFDFD" stroke-miterlimit="10" d="M73.17,409.239"/>
<path fill="#FFFFFF" stroke="#FFFDFD" stroke-miterlimit="10" d="M501.923,364.02"/>
<path fill="#FFFFFF" stroke="#FFFDFD" stroke-miterlimit="10" d="M523.087,359.106"/>
<path fill="#FFFFFF" stroke="#FFFDFD" stroke-miterlimit="10" d="M275.09,662.18c-0.12,0.03-0.25,0.052-0.37,0.07
	c-0.47,0.08-0.93,0.16-1.4,0.23C273.91,662.38,274.5,662.28,275.09,662.18z"/>
<path fill="#FFFFFF" stroke="#FFFDFD" stroke-miterlimit="10" d="M420.028,517.621c-1.327,4.199-2.8,8.344-4.409,12.406
	c-0.772,1.936-1.572,3.854-2.408,5.754c-0.428,0.99-0.863,1.963-1.318,2.936c-0.444,0.974-0.899,1.945-1.362,2.908
	c-0.463,0.964-0.938,1.927-1.418,2.882c-0.336,0.672-0.672,1.336-1.027,1.999c-0.627,1.229-1.282,2.455-1.954,3.672
	c-0.291,0.537-0.582,1.063-0.882,1.592c-0.327,0.582-0.654,1.154-0.981,1.728c-0.509,0.891-1.035,1.781-1.563,2.663
	c-0.999,1.682-2.036,3.346-3.1,4.99c-0.399,0.628-0.801,1.245-1.219,1.862c-0.271,0.428-0.554,0.847-0.836,1.265
	c-0.526,0.79-1.071,1.581-1.618,2.362c-0.563,0.81-1.127,1.608-1.709,2.409c-0.617,0.862-1.244,1.717-1.881,2.563
	c-0.409,0.555-0.827,1.108-1.255,1.653c-0.354,0.473-0.709,0.938-1.072,1.399c-0.563,0.728-1.146,1.454-1.727,2.172
	c-0.392,0.491-0.791,0.982-1.2,1.473c-0.364,0.455-0.745,0.909-1.127,1.363c-0.19,0.236-0.391,0.474-0.601,0.701
	c-0.527,0.635-1.072,1.271-1.627,1.899c-0.545,0.636-1.101,1.263-1.663,1.881c-0.491,0.555-0.99,1.1-1.49,1.646
	c-0.245,0.272-0.491,0.536-0.746,0.81c-0.499,0.546-1.008,1.082-1.526,1.608c-0.19,0.218-0.391,0.427-0.601,0.638
	c-0.409,0.436-0.817,0.854-1.245,1.279c-0.408,0.428-0.836,0.854-1.263,1.282c-0.291,0.3-0.592,0.591-0.893,0.881
	c-0.509,0.51-1.025,1.02-1.554,1.52c-0.173,0.173-0.346,0.336-0.527,0.509c-0.535,0.509-1.071,1.019-1.616,1.526
	c-0.409,0.382-0.818,0.764-1.236,1.137c-0.673,0.618-1.345,1.235-2.037,1.846c-0.479,0.427-0.972,0.854-1.462,1.281
	c-0.4,0.346-0.8,0.698-1.209,1.036c-0.746,0.646-1.491,1.271-2.255,1.891c-0.519,0.437-1.036,0.863-1.563,1.281
	c-0.271,0.228-0.545,0.455-0.826,0.673c-0.608,0.491-1.228,0.973-1.847,1.454c-0.189,0.153-0.39,0.31-0.599,0.464
	c-0.573,0.444-1.155,0.891-1.745,1.326c-0.491,0.373-0.981,0.745-1.482,1.101c-0.136,0.108-0.271,0.209-0.407,0.3
	c-0.628,0.464-1.256,0.919-1.892,1.373c-0.473,0.347-0.955,0.683-1.437,1.009c-0.327,0.236-0.655,0.465-0.99,0.691
	c-0.537,0.372-1.073,0.735-1.609,1.09c-0.336,0.237-0.682,0.464-1.026,0.691c-0.728,0.48-1.453,0.954-2.19,1.427
	c-0.081,0.055-0.172,0.108-0.255,0.164c-0.617,0.398-1.235,0.79-1.863,1.172c-0.436,0.281-0.881,0.555-1.326,0.827
	c-0.445,0.271-0.899,0.546-1.354,0.81c-0.473,0.29-0.955,0.581-1.437,0.854c-0.846,0.5-1.69,0.99-2.546,1.464
	c-0.581,0.336-1.163,0.663-1.754,0.981c-0.391,0.228-0.791,0.436-1.189,0.653c-0.609,0.336-1.229,0.664-1.847,0.981
	c-0.291,0.153-0.582,0.31-0.871,0.455c-0.674,0.354-1.347,0.699-2.019,1.035c-0.282,0.146-0.573,0.291-0.854,0.428
	c-0.618,0.31-1.246,0.618-1.872,0.909c-2.237,1.09-4.5,2.127-6.782,3.107c-0.753,0.327-1.508,0.646-2.262,0.954
	c-1.782,0.746-3.573,1.464-5.382,2.146c-0.664,0.264-1.337,0.509-2.009,0.755c-0.101,0.034-0.21,0.07-0.31,0.107
	c-0.918,0.336-1.846,0.664-2.772,0.981c-1.236,0.428-2.472,0.846-3.717,1.235c-0.828,0.272-1.654,0.536-2.49,0.782
	c-1.037,0.317-2.082,0.627-3.127,0.927c-1.045,0.301-2.091,0.592-3.145,0.872c-2.027,0.536-4.054,1.036-6.108,1.51
	c-1.082,0.244-2.172,0.49-3.263,0.719c-2.145,0.445-4.299,0.854-6.481,1.227c67.316-11.688,121.934-60.344,142.184-124.297
	L420.028,517.621z"/>
<path fill="#FFFFFF" stroke="#FFFDFD" stroke-miterlimit="10" d="M544.651,418.593l-2.438,0.608l-0.898,0.219l-0.536,0.136
	l-4.154,0.974l-23.468,5.525l-20.251,4.772l-0.864,0.199c0.673,4.153,1.245,8.354,1.673,12.589c0.046,0.382,0.081,0.764,0.117,1.146
	c0.01,0.101,0.02,0.19,0.028,0.29c0.336,3.445,0.591,6.918,0.754,10.407v0.01l0.009,0.01c0.027,0.563,0.056,1.128,0.073,1.689
	c0.118,2.973,0.182,5.954,0.182,8.944c0,22.77-3.518,44.71-10.063,65.314c-1.535,4.872-3.255,9.682-5.126,14.39
	c-7.916,19.905-18.688,38.349-31.841,54.826c-3.227,4.055-6.606,7.989-10.115,11.799c-4.173,4.525-8.543,8.87-13.079,13.032
	c-0.073,0.073-0.154,0.155-0.246,0.22c-1.317,1.199-2.654,2.391-4.019,3.563c-1.234,1.091-2.499,2.153-3.771,3.199
	c-0.664,0.545-1.346,1.1-2.02,1.645c-0.918,0.746-1.844,1.474-2.771,2.2c-0.9,0.7-1.811,1.392-2.718,2.081
	c-28.269,21.314-61.927,35.885-98.564,41.284c-6.254,0.927-12.598,1.59-19.015,1.963c-0.019,0.009-0.037,0.009-0.046,0
	c-74.841-4.018-140.603-42.192-181.996-99.209c8.808,10.071,18.697,19.169,29.513,27.086l0.009,0.009
	c0.028,0.02,0.055,0.036,0.073,0.055c13.388,9.816,28.177,17.844,44.01,23.724l0.009,0.01c18.415,6.854,38.248,10.798,58.926,11.288
	c0.091,0,0.182,0.009,0.273,0.009c1.381,0.037,2.781,0.057,4.172,0.057h0.245c0.7,0,1.4,0,2.1-0.02
	c0.791-0.009,1.572-0.026,2.345-0.046c1.5-0.036,2.991-0.09,4.481-0.163c0,0,0,0,0.009,0c1.445-0.072,2.881-0.153,4.317-0.264
	c1.4-0.102,2.8-0.219,4.19-0.354c1.146-0.107,2.3-0.227,3.436-0.362c1.127-0.127,2.245-0.265,3.363-0.418
	c0.982-0.127,1.945-0.272,2.927-0.418c0.218-0.028,0.436-0.064,0.654-0.102c0.527-0.082,1.073-0.163,1.609-0.254
	c0.428-0.064,0.846-0.137,1.273-0.21c0.109-0.018,0.227-0.036,0.336-0.063c2.182-0.372,4.336-0.78,6.481-1.227
	c1.091-0.228,2.182-0.464,3.263-0.719c2.054-0.474,4.081-0.974,6.108-1.509c1.054-0.281,2.1-0.572,3.145-0.872
	c1.045-0.301,2.09-0.609,3.127-0.928c0.836-0.245,1.663-0.51,2.49-0.781c1.245-0.392,2.481-0.81,3.717-1.236
	c0.928-0.317,1.854-0.646,2.772-0.981c0.1-0.036,0.209-0.072,0.31-0.107c0.672-0.246,1.345-0.491,2.009-0.755
	c1.809-0.683,3.6-1.399,5.382-2.146c0.754-0.309,1.509-0.627,2.262-0.954c2.282-0.98,4.545-2.019,6.782-3.107
	c0.626-0.291,1.254-0.601,1.872-0.909c0.28-0.137,0.571-0.282,0.854-0.428c0.672-0.335,1.345-0.683,2.018-1.035
	c0.29-0.146,0.581-0.301,0.872-0.455c0.618-0.317,1.236-0.646,1.847-0.981c0.398-0.219,0.8-0.427,1.189-0.653
	c0.591-0.318,1.173-0.646,1.754-0.981c0.854-0.474,1.7-0.964,2.546-1.464c0.48-0.271,0.964-0.563,1.437-0.854
	c0.454-0.265,0.908-0.537,1.354-0.811c0.445-0.271,0.892-0.546,1.326-0.827c0.628-0.382,1.246-0.771,1.863-1.172
	c0.083-0.056,0.174-0.108,0.255-0.164c0.737-0.473,1.464-0.944,2.19-1.427c0.346-0.229,0.69-0.454,1.026-0.691
	c0.536-0.354,1.072-0.718,1.609-1.09c0.335-0.228,0.663-0.455,0.99-0.69c0.48-0.327,0.964-0.663,1.437-1.01
	c0.636-0.453,1.263-0.908,1.892-1.372c0.136-0.092,0.271-0.191,0.407-0.301c0.501-0.354,0.991-0.728,1.482-1.101
	c0.59-0.437,1.172-0.881,1.745-1.326c0.209-0.154,0.408-0.31,0.599-0.464c0.619-0.481,1.237-0.963,1.846-1.454
	c0.282-0.218,0.556-0.445,0.827-0.673c0.527-0.418,1.046-0.836,1.563-1.281c0.764-0.618,1.509-1.245,2.255-1.891
	c0.409-0.337,0.809-0.69,1.209-1.036c0.49-0.427,0.98-0.854,1.462-1.281c0.692-0.608,1.364-1.227,2.037-1.846
	c0.418-0.373,0.827-0.755,1.236-1.136c0.545-0.51,1.081-1.02,1.616-1.527c0.183-0.173,0.354-0.336,0.527-0.509
	c0.527-0.5,1.045-1.009,1.554-1.52c0.301-0.29,0.602-0.581,0.893-0.881c0.427-0.428,0.854-0.854,1.263-1.282
	c0.428-0.427,0.836-0.845,1.245-1.279c0.21-0.21,0.409-0.419,0.601-0.638c0.527-0.526,1.027-1.072,1.526-1.608
	c0.255-0.272,0.501-0.536,0.746-0.81c0.509-0.546,0.999-1.091,1.49-1.646c0.563-0.618,1.118-1.245,1.663-1.881
	c0.555-0.628,1.1-1.266,1.627-1.899c0.21-0.228,0.408-0.465,0.601-0.701c0.382-0.454,0.763-0.907,1.127-1.362
	c0.409-0.49,0.81-0.981,1.2-1.474c0.581-0.718,1.163-1.443,1.727-2.172c0.363-0.463,0.728-0.928,1.072-1.398
	c0.428-0.545,0.846-1.101,1.255-1.654l3.59-4.972c0.546-0.782,1.092-1.573,1.618-2.363c0.282-0.418,0.563-0.837,0.836-1.264
	c0.418-0.618,0.818-1.235,1.219-1.863c1.063-1.646,2.101-3.309,3.1-4.99c0.527-0.882,1.055-1.771,1.563-2.663
	c0.327-0.571,0.654-1.145,0.981-1.728c0.3-0.527,0.591-1.055,0.882-1.591c0.672-1.218,1.327-2.444,1.954-3.673
	c0.355-0.662,0.691-1.326,1.027-1.999c0.48-0.954,0.955-1.918,1.418-2.882c0.463-0.963,0.918-1.936,1.362-2.908
	c0.455-0.973,0.892-1.944,1.318-2.936c0.836-1.899,1.636-3.818,2.408-5.754c1.608-4.063,3.082-8.207,4.409-12.406
	c2.999-9.554,5.233-19.441,6.635-29.604c0.345-2.49,0.636-4.99,0.881-7.509c0.137-1.391,0.255-2.79,0.354-4.189
	c0.055-0.718,0.101-1.437,0.146-2.154c0.092-1.48,0.164-2.972,0.219-4.472c0.027-0.754,0.056-1.509,0.072-2.264
	c0.009-0.771,0.027-1.563,0.036-2.346c0.019-0.699,0.019-1.398,0.019-2.1v-0.245c0-0.591,0-1.19-0.009-1.791
	c0-0.109,0-0.208-0.01-0.317c-0.027-2.189-0.081-4.373-0.182-6.535c-0.027-0.418-0.055-0.837-0.072-1.245
	c-1.19-22.45-6.462-43.819-15.079-63.379c-0.646-1.454-1.31-2.909-1.99-4.345l15.506-3.6l47.438-11.016l5.381-1.245l33.229-7.726
	l0.49-0.127l17.506-4.545c5.582,14.979,9.718,30.677,12.218,46.901C543.588,408.658,544.196,413.603,544.651,418.593z"/>
<path fill="#FFFFFF" stroke="#FFFDFD" stroke-miterlimit="10" d="M515.638,325.772l-2.607,0.645l-13.579,3.427l-0.418,0.109
	l-19.024,4.781l-3.954,1l-22.642,5.708l-23.368,5.881l-29.35,7.398l-6.854,1.727l-0.937,0.236l-21.086,5.317l-23.523,5.926h-0.01
	l-53.781,13.552l-125.451,31.613l-16.024,4.035l-58.926,14.834l-9.316,2.345l-0.209,0.056l-10.361,2.607l-0.136,0.046l-1.045,0.254
	l-3.981,1.011l-0.846,0.218c1.563-10.916,4.108-21.515,7.535-31.713l7.344-2.317l16.306-5.009l71.724-22.014l123.915-38.03
	l46.602-14.306l2.836-0.873l12.588-3.863l1.556-0.473l40.819-12.525l0.509-0.155l3.617-1.108l41.003-12.598l18.905-5.808
	l14.815-4.545l5.989-1.845C496.104,294.859,506.621,309.757,515.638,325.772z"/>
<path fill="#FFFFFF" stroke="#FFFDFD" stroke-miterlimit="10" d="M345.841,310.757l-1.817,0.554l-4.055,1.246l-2.836,0.872
	l-46.601,14.307l-123.915,38.029l-71.724,22.014l-11.471,3.527l-1.945,0.6c1.791-4.081,3.727-8.09,5.808-12.007l5.008-1.717
	l229.75-78.723l2.236-0.763C331.761,302.231,338.969,306.267,345.841,310.757z"/>
<path fill="#FFFFFF" stroke="#FFFDFD" stroke-miterlimit="10" d="M83.086,404.468l-7.344,2.317c0-0.019,0.009-0.036,0.018-0.054
	v-0.011l2.672-0.826L83.086,404.468z"/>
<path fill="#FFFFFF" stroke="#FFFDFD" stroke-miterlimit="10" d="M428.48,464.475c0,100.002-81.067,181.068-181.06,181.068
	c-40.629,0-78.123-13.379-108.335-35.976c13.388,9.816,28.177,17.844,44.01,23.724l0.009,0.01
	c18.415,6.854,38.248,10.798,58.926,11.288c0.091,0,0.182,0.009,0.273,0.009c1.381,0.037,2.781,0.057,4.172,0.057h0.245
	c0.7,0,1.4,0,2.1-0.02c0.791-0.009,1.572-0.026,2.345-0.046c1.5-0.036,2.991-0.09,4.481-0.163c0,0,0,0,0.009,0
	c1.445-0.072,2.881-0.154,4.317-0.264c1.4-0.102,2.8-0.219,4.19-0.354c1.146-0.107,2.3-0.227,3.436-0.362
	c1.127-0.127,2.245-0.265,3.363-0.418c0.982-0.127,1.945-0.272,2.927-0.418c0.218-0.028,0.436-0.064,0.654-0.102
	c0.527-0.082,1.073-0.163,1.609-0.254c0.537-0.092,1.073-0.182,1.609-0.273c67.316-11.688,121.934-60.344,142.184-124.297
	c3.036-9.569,5.29-19.485,6.718-29.667c0.345-2.489,0.636-4.989,0.881-7.508c0.137-1.391,0.255-2.79,0.354-4.189
	c0.055-0.719,0.101-1.437,0.146-2.154c0.092-1.481,0.164-2.972,0.219-4.472c0.027-0.755,0.056-1.51,0.072-2.265
	c0.009-0.771,0.027-1.563,0.036-2.345c0.019-0.699,0.019-1.399,0.019-2.1v-0.245c0-0.592,0-1.19-0.009-1.791
	c0-0.109,0-0.208-0.01-0.317c-0.027-2.189-0.081-4.373-0.182-6.536C428.381,457.531,428.48,460.994,428.48,464.475z"/>
</svg>
