<svg xmlns="http://www.w3.org/2000/svg" width="303.466" height="82.861" viewBox="0 0 303.466 82.861"><defs><style>.a{fill:#111;}.b{fill:#c5090a;}</style></defs><g transform="translate(151.733 41.43)"><g transform="translate(-151.733 -41.43)"><path class="a" d="M100.047,79v.487c0,1.657.39,2.34,1.462,2.73a22.128,22.128,0,0,0,5.849.487c6.629,0,7.8-.487,7.8-3.314s-.39-2.047-1.56-2.34-1.17-.292-8.774-.39c-3.022,0-4.387-.292-5.362-.975A3.437,3.437,0,0,1,98,72.466c0-1.657.877-4,2.924-4.582a27,27,0,0,1,7.116-.585c3.9,0,5.849.292,7.019.975s1.657,1.657,1.657,4h-1.95c0-1.365-.292-1.95-.78-2.34s-2.535-.877-5.946-.877c-6.629,0-7.9.487-7.9,3.217,0,1.17.292,1.852,1.072,2.145s1.657.487,6.434.487,6.531.1,7.7.682,1.95,1.755,1.95,3.9-.78,3.7-2.437,4.387-3.119.585-7.019.585a29.439,29.439,0,0,1-7.409-.585A3.509,3.509,0,0,1,98,80.167V79Z" transform="translate(-2.466 -1.693)"/><path class="a" d="M147.779,69.155H139.2V67.4h19.107v1.657h-8.579V84.265h-1.95Z" transform="translate(-3.503 -1.696)"/><path class="a" d="M200.087,67.4V78.9a8.774,8.774,0,0,1-.292,3.022c-.78,2.145-2.535,2.632-9.651,2.632s-7.7-.292-8.871-1.365a3.314,3.314,0,0,1-.975-2.242,16.965,16.965,0,0,1-.1-1.95V67.4h2.047V78.513a8.092,8.092,0,0,0,.1,2.145c.39,1.755,1.462,2.047,7.8,2.047s6.726-.195,7.409-1.17.487-.877.487-3.022V67.4Z" transform="translate(-4.535 -1.696)"/><path class="a" d="M222.1,67.4h13.063c3.7,0,5.557.682,6.629,2.437s1.072,3.217,1.072,5.946a12.626,12.626,0,0,1-1.072,5.946c-.682,1.17-2.924,2.437-6.629,2.437H222.1Zm13.258,15.207c2.34,0,3.9-.585,4.582-1.657s.877-2.535.877-4.972-.292-4.387-.877-5.264-2.145-1.56-4.679-1.56H224.147V82.607Z" transform="translate(-5.589 -1.696)"/><path class="a" d="M264.9,67.4h2.047V84.265H264.9Z" transform="translate(-6.666 -1.696)"/><path class="a" d="M308.777,68.76c1.072,1.17,1.365,2.437,1.365,7.019s-.292,5.946-1.365,7.116-2.535,1.56-9.456,1.56-8.189-.195-9.456-1.56-1.365-2.437-1.365-7.019.292-5.946,1.365-7.116,2.535-1.56,9.553-1.56S307.509,67.492,308.777,68.76Zm-17.352,1.267c-.682.78-.877,1.95-.877,5.849s.195,5.069.877,5.752,1.95,1.072,7.9,1.072,7.019-.195,7.9-1.072.877-1.95.877-5.752-.195-5.069-.877-5.849-2.242-1.072-7.7-1.072S292.3,69.15,291.424,70.027Z" transform="translate(-7.26 -1.691)"/><path class="b" d="M269.61,27.2H246.6a3.7,3.7,0,0,0-3.7,3.7V55.178a3.7,3.7,0,0,0,3.7,3.7H269.61a3.7,3.7,0,0,0,3.7-3.7V30.9A3.7,3.7,0,0,0,269.61,27.2Zm-2.242,21.739a3.7,3.7,0,0,1-3.7,3.7H252.843a3.7,3.7,0,0,1-3.7-3.7V37.046a3.7,3.7,0,0,1,3.7-3.7h10.821a3.7,3.7,0,0,1,3.7,3.7Z" transform="translate(-6.113 -0.685)"/><path class="b" d="M306.513,27H284.872c-3.412,0-4.972,1.267-4.972,4.192V56.635c0,1.365.487,1.95,1.56,1.95h3.7c.78,0,.975-.585.975-1.17V36.651c0-1.365.682-3.509,4.192-3.509h11.016c1.365.195,3.119,1.17,3.119,4.192l-.195,19.984c0,.78.487,1.267,1.462,1.267h3.509c.975,0,1.267-.292,1.267-1.267V31.874C310.315,28.657,309.145,27.1,306.513,27Z" transform="translate(-7.044 -0.679)"/><path class="b" d="M140.186,52.736c.585,0,1.17.195,1.17.975v3.412c0,1.072-.585,1.56-1.95,1.56H120.592c-2.924,0-4.192-1.56-4.192-4.972V28.267c0-.877.292-1.267,1.267-1.267h3.509c.975,0,1.462.487,1.462,1.267V48.251c0,3.509,2.047,4.484,3.509,4.484Z" transform="translate(-2.929 -0.679)"/><path class="b" d="M235.186,52.836c.585,0,1.17.195,1.17.975v3.412c0,1.072-.585,1.56-1.95,1.56H215.592c-2.924,0-4.192-1.56-4.192-4.972V28.367c0-.877.292-1.267,1.267-1.267h3.509c.975,0,1.462.487,1.462,1.267V48.449c0,3.509,2.047,4.484,3.509,4.484Z" transform="translate(-5.32 -0.682)"/><path class="b" d="M204.055,26.515H185.143V1.267c0-.78-.487-1.267-1.462-1.267h-3.509C179.2,0,178.9.292,178.9,1.267V26.515H152.291a3.8,3.8,0,0,0-3.314,1.365,5.947,5.947,0,0,0-.877,3.607V53.031a5.946,5.946,0,0,0,.877,3.607A3.8,3.8,0,0,0,152.291,58h18.814c1.365,0,1.95-.487,1.95-1.56V53.031c0-.78-.585-.975-1.17-.975H157.653c-1.365,0-3.412-.975-3.412-4.289V36.751c.1-3.314,2.047-4.289,3.412-4.289H178.9V53.031c0,3.412,1.267,4.972,4.192,4.972H201.91c1.365,0,1.95-.487,1.95-1.56V53.031c0-.78-.585-.975-1.17-.975H188.653c-1.365,0-3.509-.975-3.509-4.484V32.462h19.692c.585,0,1.17-.195,1.17-.975V28.075C206,27,205.42,26.515,204.055,26.515Z" transform="translate(-3.727)"/><path class="b" d="M30.707,31.192A4,4,0,0,0,26.515,27H4.289C1.755,27,0,28.462,0,31.387V55.173c0,2.047,1.267,3.509,4.484,3.509H17.352a1.657,1.657,0,0,0,1.755-1.755V54a.975.975,0,0,0-1.072-1.072H7.7a1.95,1.95,0,0,1-1.95-1.95V36.163s0-2.925,2.437-2.925H21.641c1.755,0,3.314.877,3.314,2.925V57.122c0,.682.292,1.56,1.267,1.56h2.925c1.56,0,1.462-.877,1.462-1.56Z" transform="translate(0 -0.679)"/><g transform="translate(36.361 0.097)"><path class="b" d="M46.57,52.059c-.585,0-1.17.195-1.17.975v3.412c0,1.072.585,1.56,1.95,1.56H66.164c2.924,0,4.192-1.56,4.192-4.972V1.367C70.356.49,70.063.1,69.186.1H65.677C64.6.1,64.214.587,64.214,1.367V47.574c0,3.509-2.047,4.484-3.509,4.484Z" transform="translate(-37.504 -0.1)"/><path class="b" d="M61.086,31.346c.585,0,1.17-.195,1.17-.975V26.96c0-1.072-.585-1.56-1.95-1.56H41.492c-2.925,0-4.192,1.56-4.192,4.972V82.038c0,.877.292,1.267,1.267,1.267h3.509c1.072,0,1.462-.487,1.462-1.267V35.831c0-3.509,2.047-4.484,3.509-4.484Z" transform="translate(-37.3 -0.737)"/></g><g transform="translate(74.965 0.097)"><path class="b" d="M86.17,52.059c-.585,0-1.17.195-1.17.975v3.412c0,1.072.585,1.56,1.95,1.56h18.814c2.924,0,4.192-1.56,4.192-4.972V1.367c0-.877-.292-1.267-1.267-1.267h-3.509c-1.072,0-1.462.487-1.462,1.267V47.574c0,3.509-2.047,4.484-3.509,4.484Z" transform="translate(-77.104 -0.1)"/><path class="b" d="M100.686,31.346c.585,0,1.17-.195,1.17-.975V26.96c0-1.072-.585-1.56-1.95-1.56H81.092c-2.924,0-4.192,1.56-4.192,4.972V82.038c0,.877.292,1.267,1.267,1.267h3.509c1.072,0,1.462-.487,1.462-1.267V35.831c0-3.509,2.047-4.484,3.509-4.484Z" transform="translate(-76.9 -0.737)"/></g><rect class="b" width="6.141" height="5.742" rx="1.072" transform="translate(114.153 10.431)"/><rect class="b" width="6.921" height="6.434" rx="1.072" transform="translate(206.372 10.431)"/></g></g></svg>